<svg width="753" height="211" viewBox="0 0 753 211" fill="none" xmlns="http://www.w3.org/2000/svg">
<path d="M0 110.087C0 167.354 33.9431 211 91.0668 211C140.74 211 173.303 180.976 179.098 132.327H156.469C152.054 169.856 129.149 191.54 91.0668 191.54C45.8094 191.54 22.6287 157.625 22.6287 110.087C22.6287 62.8274 45.8094 28.9117 91.0668 28.9117C129.149 28.9117 152.054 50.3175 156.469 87.8472H179.098C173.303 39.4756 140.74 9.4519 91.0668 9.4519C33.9431 9.4519 0 53.0975 0 110.087Z" fill="#E95F57"/>
<path d="M288.365 67.2754C258.562 67.2754 241.176 84.7892 235.657 109.809H229.31L232.897 93.9631V3.89196H210.269V208.22H232.897V147.061C232.897 109.809 253.318 86.7352 282.294 86.7352C305.751 86.7352 317.065 97.8551 317.065 126.767V208.22H339.418V123.709C339.418 85.3452 319.273 67.2754 288.365 67.2754Z" fill="#E95F57"/>
<path d="M429.141 39.0935C440.179 39.0935 449.01 30.7536 449.01 19.6337C449.01 9.06983 440.179 0.451904 429.141 0.451904C417.826 0.451904 409.271 9.06983 409.271 19.6337C409.271 30.7536 417.826 39.0935 429.141 39.0935ZM368.331 208.22H466.849V188.76H428.215V81C428.215 70.4361 423.247 63.2082 410.277 64.3202V64.3202C399.825 67.1824 388.874 67.7266 378.189 65.9148L361 63V75L379.188 82.5974C387.985 86.2722 397.749 86.941 406.966 84.5V84.5V188.76H368.331V208.22Z" fill="#E95F57"/>
<path d="M487.921 208.22H587.267V188.76H548.908V20.2938C548.908 7.22792 542.837 -3.57628e-07 530.143 1.11197L498.132 3.89196V23.3518L526.555 20.8498V188.76H487.921V208.22Z" fill="#E95F57"/>
<path d="M610.605 169.856C610.605 184.312 616.676 211 656.414 211C689.529 211 704.155 191.262 709.398 170.134H716.021L712.434 184.59V192.096C712.434 202.382 718.229 208.22 728.716 208.22H753V188.76H732.855V129.825C732.855 92.8511 709.95 67.2754 671.592 67.2754C632.681 67.2754 611.157 92.8511 611.157 121.485H633.233C633.233 95.3531 651.723 86.4572 671.592 86.4572C695.324 86.4572 708.846 98.9671 710.226 124.265L655.586 129.547C623.575 132.883 610.605 147.895 610.605 169.856ZM633.233 167.076C633.233 153.455 642.064 148.173 659.45 146.505L710.226 141.223C710.226 169.856 690.357 191.54 659.174 191.54C643.168 191.54 633.233 182.922 633.233 167.076Z" fill="#E95F57"/>
<path d="M393 19.6338C393 30.7537 384.169 39.0936 373.131 39.0936C361.816 39.0936 353.262 30.7537 353.262 19.6338C353.262 9.06985 361.816 0.45193 373.131 0.45193C384.169 0.45193 393 9.06985 393 19.6338Z" fill="#E95F57"/>
</svg>
